<?xml version="1.0" standalone="no"?>
<!DOCTYPE svg PUBLIC "-//W3C//DTD SVG 20010904//EN"
 "http://www.w3.org/TR/2001/REC-SVG-20010904/DTD/svg10.dtd">
<svg version="1.0" xmlns="http://www.w3.org/2000/svg"
 width="149.000000pt" height="100.000000pt" viewBox="0 0 149.000000 100.000000"
 preserveAspectRatio="xMidYMid meet">

<g transform="translate(0.000000,100.000000) scale(0.100000,-0.100000)"
fill="#000000" stroke="none">
<path d="M5 988 c-3 -7 -4 -186 -3 -398 l3 -385 148 -3 147 -3 0 -94 0 -95
590 0 590 0 0 375 0 375 -120 0 -119 0 -3 118 -3 117 -613 3 c-485 2 -614 0
-617 -10z m1185 -133 l0 -95 -191 0 c-187 0 -191 0 -223 25 -97 74 -215 74
-312 0 -27 -21 -44 -25 -98 -25 -64 0 -66 -1 -66 -25 0 -18 -5 -25 -20 -25
-25 0 -25 -7 0 -45 26 -39 25 -85 -1 -129 l-21 -36 21 0 c20 0 21 -5 21 -125
l0 -125 -125 0 -125 0 0 350 0 350 570 0 570 0 0 -95z m-492 -85 c12 -7 -10
-9 -75 -10 -51 0 -93 2 -93 5 0 2 15 9 33 14 36 11 109 6 135 -9z m300 -176
c31 -15 63 -41 79 -65 l28 -39 73 0 c39 0 72 -3 72 -6 0 -4 -13 -29 -30 -55
l-30 -49 30 -48 29 -47 -68 -3 c-65 -3 -70 -5 -91 -35 -90 -132 -278 -139
-384 -15 -36 42 -39 43 -106 48 l-70 5 31 47 31 47 -31 51 c-17 28 -31 52 -31
55 0 3 33 5 74 5 71 0 76 1 92 28 57 95 195 129 302 76z"/>
<path d="M843 560 c-48 -11 -103 -57 -124 -104 -40 -88 -11 -186 70 -238 41
-26 53 -29 112 -26 54 3 73 9 104 32 88 67 99 202 22 284 -43 46 -120 68 -184
52z m35 -117 l3 -43 -45 0 -46 0 0 46 0 45 43 -3 c42 -3 42 -3 45 -45z m120 0
l3 -43 -45 0 -46 0 0 46 0 45 43 -3 c42 -3 42 -3 45 -45z m-120 -120 l3 -43
-45 0 -46 0 0 46 0 45 43 -3 c42 -3 42 -3 45 -45z m120 0 l3 -43 -45 0 -46 0
0 46 0 45 43 -3 c42 -3 42 -3 45 -45z"/>
</g>
</svg>
