<svg xmlns="http://www.w3.org/2000/svg" xmlns:xlink="http://www.w3.org/1999/xlink" width="100.329" height="93.247" viewBox="0 0 100.329 93.247"><defs><style>.a{fill:none;}.b{clip-path:url(#a);}</style><clipPath id="a"><rect class="a" width="100.329" height="93.247"/></clipPath></defs><g class="b"><path d="M92.892,0H7.436A7.405,7.405,0,0,0,0,7.436v66.1a7.405,7.405,0,0,0,7.436,7.436H41.9v8.734H30.217a1.771,1.771,0,0,0,0,3.541H69.994a1.771,1.771,0,0,0,0-3.541H57.836V80.971H92.892a7.405,7.405,0,0,0,7.436-7.436V7.436A7.481,7.481,0,0,0,92.892,0ZM7.436,3.541H92.893a3.93,3.93,0,0,1,3.9,3.9V63.384H3.541V7.436A3.93,3.93,0,0,1,7.436,3.541ZM54.3,89.706H45.561V80.971H54.3Zm38.6-12.275H7.436a3.93,3.93,0,0,1-3.9-3.9v-6.61H96.788v6.61A3.93,3.93,0,0,1,92.892,77.43Z"/><path d="M22.136,55.387H43.854v2.007H51.29V55.505h21.6v1.889h7.436V49.958H78.438V37.092h1.889V29.656H78.438V16.318h1.889V9H72.891v1.889H51.172V9H43.736v1.889h-21.6V9H14.7v7.436h1.889V29.774H14.7V37.21h1.889V50.076H14.7v7.318h7.436Zm-2.007-18.3h2.007V29.656H20.248V16.318h1.889V14.43H43.854v1.889H51.29V14.43h21.6v1.889h1.889V29.656H72.891v7.436h1.889V49.958H72.891v1.889H51.172V49.958H43.736v1.889h-21.6V49.958H20.248V37.092Z" transform="translate(2.651 1.623)"/></g></svg>