<svg xmlns="http://www.w3.org/2000/svg" xmlns:xlink="http://www.w3.org/1999/xlink" width="125.174" height="110.2" viewBox="0 0 125.174 110.2"><defs><style>.a{fill:none;}.b{clip-path:url(#a);}.c{fill:#202020;}</style><clipPath id="a"><rect class="a" width="125.174" height="110.2"/></clipPath></defs><g class="b"><path class="c" d="M125.174,63.991V24.8h-12.4V13.336a1.8,1.8,0,0,0-1.755-1.755H94.056V0H31.937V17.782H7.37A7.339,7.339,0,0,0,0,25.152V90.664a7.339,7.339,0,0,0,7.37,7.37H41.881v8.657H29.948a1.755,1.755,0,0,0,0,3.51H69.255a1.755,1.755,0,1,0,0-3.51h-11.7V98.034H92.067a7.339,7.339,0,0,0,7.37-7.37V63.991ZM113.242,38.956l-3.51,5.5,3.51,5.5H105.4a12.42,12.42,0,0,1-11.348,7.019,12.758,12.758,0,0,1-11.348-7.019H74.871l3.51-5.5-3.51-5.5h7.838a12.42,12.42,0,0,1,11.348-7.019A12.758,12.758,0,0,1,105.4,38.956ZM50.655,15.208h58.61v9.71H63.055V50.889h-12.4ZM7.37,21.291H31.937V39.073H47.028V52.526a1.8,1.8,0,0,0,1.755,1.755H62.938v9.71h32.99V80.6H3.51V25.152A3.9,3.9,0,0,1,7.37,21.291Zm46.677,85.4H45.39V98.034h8.657Zm38.02-12.166H7.37A3.9,3.9,0,0,1,3.51,90.664V84.112H95.928v6.551A3.9,3.9,0,0,1,92.067,94.524Z"/><path class="c" d="M81.844,29.7a9.944,9.944,0,1,0,9.944,9.944A9.935,9.935,0,0,0,81.844,29.7Zm-.7,15.208H76.462V40.229h4.679Zm0-6.317H76.462V33.911h4.679Zm6.2,6.317H82.663V40.229h4.679Zm0-6.317H82.663V33.911h4.679Z" transform="translate(12.212 5.045)"/></g></svg>