<svg xmlns="http://www.w3.org/2000/svg" xmlns:xlink="http://www.w3.org/1999/xlink" width="109.237" height="71.226" viewBox="0 0 109.237 71.226"><defs><style>.a{fill:none;}.b{clip-path:url(#a);}</style><clipPath id="a"><rect class="a" width="109.237" height="71.226"/></clipPath></defs><g class="b"><path d="M107.9,12.345H95.2V0H0V56.217H11.368V69.894A1.366,1.366,0,0,0,12.7,71.226h95.2a1.366,1.366,0,0,0,1.332-1.332V13.677A1.366,1.366,0,0,0,107.9,12.345Zm-1.332,56.217H14.032V15.009h92.54Z"/><path d="M31.717,48.665a10.061,10.061,0,0,0,18.117,0H56.14l-2.753-4.441,2.753-4.441H49.923a10.061,10.061,0,0,0-18.117,0H25.5l2.753,4.441L25.5,48.665ZM40.775,36.5a7.993,7.993,0,1,1-7.993,7.993A8.134,8.134,0,0,1,40.775,36.5Z" transform="translate(-2.853 -3.816)"/><rect width="3.819" height="3.819" transform="translate(33.57 36.057)"/><rect width="3.819" height="3.819" transform="translate(38.632 36.057)"/><rect width="3.819" height="3.819" transform="translate(33.57 41.119)"/><rect width="3.819" height="3.819" transform="translate(38.632 41.119)"/><path d="M69.332,45.364H91.8a1.332,1.332,0,0,0,0-2.664H69.332A1.366,1.366,0,0,0,68,44.032,1.308,1.308,0,0,0,69.332,45.364Z" transform="translate(-7.609 -4.778)"/><path d="M69.332,37.364h33.482a1.332,1.332,0,1,0,0-2.664H69.332A1.366,1.366,0,0,0,68,36.032,1.308,1.308,0,0,0,69.332,37.364Z" transform="translate(-7.609 -3.883)"/><path d="M69.332,50.664H91.8a1.366,1.366,0,0,0,1.332-1.332A1.386,1.386,0,0,0,91.712,48H69.332A1.366,1.366,0,0,0,68,49.332,1.308,1.308,0,0,0,69.332,50.664Z" transform="translate(-7.609 -5.371)"/><path d="M69.332,55.964H91.8a1.332,1.332,0,0,0,0-2.664H69.332A1.366,1.366,0,0,0,68,54.632,1.308,1.308,0,0,0,69.332,55.964Z" transform="translate(-7.609 -5.964)"/></g></svg>