<svg xmlns="http://www.w3.org/2000/svg" width="93.91" height="95.537" viewBox="0 0 93.91 95.537"><path d="M82.452,68.737A42.284,42.284,0,0,0,51.924,40.05a21.236,21.236,0,1,0-19.556,0A42.217,42.217,0,0,0,0,81.039,1.805,1.805,0,0,0,.974,82.63C14.629,89.588,28.39,93.067,42.14,93.067a85.373,85.373,0,0,0,26.585-4.358A13.471,13.471,0,1,0,82.452,68.737ZM24.472,21.23A17.668,17.668,0,1,1,42.14,38.9,17.688,17.688,0,0,1,24.472,21.23ZM3.574,79.946A38.577,38.577,0,0,1,78.688,68.7,13.5,13.5,0,0,0,66.956,82.048a13.192,13.192,0,0,0,.427,3.313C46.142,92.248,24.745,90.467,3.574,79.946ZM80.445,91.975A9.915,9.915,0,1,1,90.36,82.06,9.925,9.925,0,0,1,80.445,91.975Z"/><path d="M74.353,64.167a1.783,1.783,0,0,0-2.434.653L67.7,72.17,64.795,69.4a1.78,1.78,0,0,0-2.458,2.577l4.548,4.334a1.754,1.754,0,0,0,1.223.487,2.135,2.135,0,0,0,.261-.024,1.754,1.754,0,0,0,1.282-.879l5.343-9.321A1.754,1.754,0,0,0,74.353,64.167Z" transform="translate(11.578 11.979)"/></svg>